<svg xmlns="http://www.w3.org/2000/svg" version="1.1" xmlns:xlink="http://www.w3.org/1999/xlink" xmlns:svgjs="http://svgjs.dev/svgjs" width="1500" height="189" viewBox="0 0 1500 189"><g transform="matrix(1,0,0,1,-0.9090909090909918,-0.4203757278585698)"><svg viewBox="0 0 396 50" data-background-color="#ffffff" preserveAspectRatio="xMidYMid meet" height="189" width="1500" xmlns="http://www.w3.org/2000/svg" xmlns:xlink="http://www.w3.org/1999/xlink"><g id="tight-bounds" transform="matrix(1,0,0,1,0.2400000000000091,0.11121051001549631)"><svg viewBox="0 0 395.52 49.77725329538717" height="49.77725329538717" width="395.52"><g><svg viewBox="0 0 474.4722777599156 59.71360930343501" height="49.77725329538717" width="395.52"><g transform="matrix(1,0,0,1,78.95227775991559,9.483420173328572)"><svg viewBox="0 0 395.52 40.74676895677786" height="40.74676895677786" width="395.52"><g id="textblocktransform"><svg viewBox="0 0 395.52 40.74676895677786" height="40.74676895677786" width="395.52" id="textblock"><g><svg viewBox="0 0 395.52 40.74676895677786" height="40.74676895677786" width="395.52"><g transform="matrix(1,0,0,1,0,0)"><svg width="395.52" viewBox="3.13 -36.23 356.39 36.72" height="40.74676895677786" data-palette-color="#000000"><path d="M26.88-2.71L26.88-2.71Q27.51-2.71 28.32-2.88L28.32-2.88 28.32-0.15Q26.66 0.24 24.93 0.24L24.93 0.24Q22.49 0.24 21.37-1.04 20.26-2.32 20.12-5.05L20.12-5.05 19.97-5.05Q18.38-2.1 16.22-0.81 14.06 0.49 10.89 0.49L10.89 0.49Q7.03 0.49 5.08-1.61 3.13-3.71 3.13-7.37L3.13-7.37Q3.13-15.89 14.21-16.02L14.21-16.02 19.97-16.11 19.97-17.55Q19.97-20.75 18.68-22.16 17.38-23.56 14.55-23.56L14.55-23.56Q11.67-23.56 10.4-22.53 9.13-21.51 8.89-19.36L8.89-19.36 4.3-19.78Q5.42-26.9 14.62-26.9L14.62-26.9Q19.51-26.9 21.96-24.62 24.41-22.34 24.41-18.02L24.41-18.02 24.41-6.64Q24.41-4.69 24.93-3.7 25.44-2.71 26.88-2.71ZM12.01-2.86L12.01-2.86Q14.36-2.86 16.16-3.98 17.97-5.1 18.97-6.98 19.97-8.86 19.97-10.86L19.97-10.86 19.97-13.04 15.33-12.94Q12.45-12.89 10.94-12.3 9.42-11.72 8.58-10.51 7.74-9.3 7.74-7.3L7.74-7.3Q7.74-5.3 8.83-4.08 9.91-2.86 12.01-2.86ZM48.19-26.42L48.19-3.47 57.47-3.47 57.47 0 33.49 0 33.49-3.47 43.8-3.47 43.8-22.95 36.01-22.95 36.01-26.42 48.19-26.42ZM48.19-31.54L43.31-31.54 43.31-36.23 48.19-36.23 48.19-31.54ZM108.2-26.42L108.2-3.47 117.47-3.47 117.47 0 93.5 0 93.5-3.47 103.8-3.47 103.8-22.95 96.01-22.95 96.01-26.42 108.2-26.42ZM108.2-31.54L103.31-31.54 103.31-36.23 108.2-36.23 108.2-31.54ZM145.62 0L141.2 0 141.2-16.97Q141.2-20.29 139.92-21.9 138.64-23.51 135.83-23.51L135.83-23.51Q132.8-23.51 130.86-21.3 128.92-19.09 128.92-15.31L128.92-15.31 128.92 0 124.53 0 124.53-20.78Q124.53-25.39 124.38-26.42L124.38-26.42 128.53-26.42Q128.55-26.29 128.58-25.76 128.6-25.22 128.64-24.52 128.68-23.83 128.73-21.9L128.73-21.9 128.8-21.9Q131.36-26.9 137.25-26.9L137.25-26.9Q141.47-26.9 143.54-24.62 145.62-22.34 145.62-17.6L145.62-17.6 145.62 0ZM158.75-22.95L154.65-22.95 154.65-26.42 158.8-26.42 160.22-33.3 163.15-33.3 163.15-26.42 173.69-26.42 173.69-22.95 163.15-22.95 163.15-7.03Q163.15-5.1 164.18-4.17 165.22-3.25 167.59-3.25L167.59-3.25Q170.86-3.25 174.84-4.08L174.84-4.08 174.84-0.73Q170.72 0.39 166.66 0.39L166.66 0.39Q162.71 0.39 160.73-1.28 158.75-2.95 158.75-6.57L158.75-6.57 158.75-22.95ZM206.72-12.28L187.88-12.28Q187.88-7.84 189.84-5.32 191.81-2.81 195.22-2.81L195.22-2.81Q197.74-2.81 199.63-3.89 201.52-4.98 202.16-6.86L202.16-6.86 206.02-5.76Q204.94-2.73 202.07-1.12 199.2 0.49 195.22 0.49L195.22 0.49Q189.46 0.49 186.36-3.1 183.26-6.69 183.26-13.38L183.26-13.38Q183.26-19.9 186.3-23.4 189.34-26.9 195.08-26.9L195.08-26.9Q200.82-26.9 203.77-23.41 206.72-19.92 206.72-12.87L206.72-12.87 206.72-12.28ZM195.13-23.66L195.13-23.66Q191.86-23.66 189.95-21.52 188.05-19.38 187.92-15.65L187.92-15.65 202.18-15.65Q201.5-23.66 195.13-23.66ZM235.53-26.49L235.53-22.41Q232.8-22.88 230.35-22.88L230.35-22.88Q226.42-22.88 224.01-19.92 221.59-16.97 221.59-12.4L221.59-12.4 221.59 0 217.19 0 217.19-17.11Q217.19-18.97 216.86-21.48 216.54-24 215.92-26.42L215.92-26.42 220.1-26.42Q221.08-23.05 221.27-20.31L221.27-20.31 221.39-20.31Q222.61-23.05 223.79-24.33 224.96-25.61 226.57-26.26 228.18-26.9 230.5-26.9L230.5-26.9Q233.04-26.9 235.53-26.49L235.53-26.49ZM268.31-26.42L257.48 0 252.27 0 241.7-26.42 246.64-26.42 253.18-9.23 253.59-7.93 254.86-3.44 255.72-6.3 256.67-9.18 263.41-26.42 268.31-26.42ZM288.21-26.42L288.21-3.47 297.49-3.47 297.49 0 273.51 0 273.51-3.47 283.82-3.47 283.82-22.95 276.03-22.95 276.03-26.42 288.21-26.42ZM288.21-31.54L283.33-31.54 283.33-36.23 288.21-36.23 288.21-31.54ZM326.73-12.28L307.89-12.28Q307.89-7.84 309.85-5.32 311.82-2.81 315.23-2.81L315.23-2.81Q317.75-2.81 319.64-3.89 321.53-4.98 322.17-6.86L322.17-6.86 326.02-5.76Q324.95-2.73 322.08-1.12 319.21 0.49 315.23 0.49L315.23 0.49Q309.47 0.49 306.37-3.1 303.27-6.69 303.27-13.38L303.27-13.38Q303.27-19.9 306.31-23.4 309.35-26.9 315.09-26.9L315.09-26.9Q320.82-26.9 323.78-23.41 326.73-19.92 326.73-12.87L326.73-12.87 326.73-12.28ZM315.14-23.66L315.14-23.66Q311.86-23.66 309.96-21.52 308.06-19.38 307.93-15.65L307.93-15.65 322.19-15.65Q321.51-23.66 315.14-23.66ZM359.52-26.42L354.88 0 349.9 0 346.41-11.5 345.02-16.43 344.06-13.04 339.96 0 335.01 0 330.54-26.42 334.88-26.42 337.16-11.6Q337.96-5.15 337.96-3.64L337.96-3.64Q338.91-7.54 339.38-8.86L339.38-8.86 342.67-19.21 347.38-19.21 350.56-8.84Q351.34-6.27 351.9-3.64L351.9-3.64Q351.9-4.37 352-5.47 352.1-6.57 352.24-7.73 352.39-8.89 352.54-9.94 352.68-10.99 352.76-11.6L352.76-11.6 355.22-26.42 359.52-26.42Z" opacity="1" transform="matrix(1,0,0,1,0,0)" fill="#000000" class="wordmark-text-0" data-fill-palette-color="primary" id="text-0"></path></svg></g></svg></g></svg></g></svg></g><g><svg viewBox="0 0 59.71360930343501 59.71360930343501" height="59.71360930343501" width="59.71360930343501"><g><svg></svg></g><g id="icon-0"><svg viewBox="0 0 59.71360930343501 59.71360930343501" height="59.71360930343501" width="59.71360930343501"><g><path d="M0 29.857c0-16.489 13.367-29.857 29.857-29.857 16.489 0 29.857 13.367 29.857 29.857 0 16.489-13.367 29.857-29.857 29.857-16.489 0-29.857-13.367-29.857-29.857zM29.857 56.039c14.46 0 26.182-11.722 26.182-26.182 0-14.46-11.722-26.182-26.182-26.182-14.46 0-26.182 11.722-26.182 26.182 0 14.46 11.722 26.182 26.182 26.182z" data-fill-palette-color="tertiary" fill="#261f20" stroke="transparent"></path></g><g transform="matrix(1,0,0,1,22.37451414643813,16.960449913098373)"><svg viewBox="0 0 14.964581010558748 25.792709477238265" height="25.792709477238265" width="14.964581010558748"><g><svg xmlns="http://www.w3.org/2000/svg" xmlns:xlink="http://www.w3.org/1999/xlink" version="1.1" x="0" y="0" viewBox="21.679106830508616 1 56.85827385947762 98" enable-background="new 0 0 100 100" xml:space="preserve" height="25.792709477238265" width="14.964581010558748" class="icon-dxe-0" data-fill-palette-color="accent" id="dxe-0"><g fill="#261f20" data-fill-palette-color="accent"><path fill-rule="evenodd" clip-rule="evenodd" d="M30.545 28.822C29.38 36.039 30.875 43.672 37.045 47.863 30.758 19.81 45.756 8.664 59.646 1 43.466 24.046 76.542 24.644 78.423 51.13 80.028 73.71 64.507 91.317 46.639 99 46.845 76.175 24.089 73.067 21.801 54.397 20.905 47.094 25.062 33.766 30.545 28.822" fill="#261f20" data-fill-palette-color="accent"></path></g></svg></g></svg></g></svg></g></svg></g></svg></g><defs></defs></svg><rect width="395.52" height="49.77725329538717" fill="none" stroke="none" visibility="hidden"></rect></g></svg></g></svg>